<svg width="16" height="16" viewBox="0 0 16 16" fill="none" xmlns="http://www.w3.org/2000/svg">
<path d="M15.7623 3.29115C15.2057 3.53781 14.6077 3.70448 13.979 3.77981C14.6277 3.39167 15.113 2.78079 15.3443 2.06115C14.7349 2.42314 14.0679 2.67794 13.3723 2.81448C12.9046 2.31506 12.285 1.98403 11.6099 1.87279C10.9347 1.76156 10.2417 1.87634 9.63849 2.19931C9.03525 2.52229 8.55552 3.03539 8.27377 3.65895C7.99202 4.28251 7.92402 4.98165 8.08033 5.64781C6.84546 5.58581 5.63742 5.26484 4.53462 4.70575C3.43181 4.14665 2.45889 3.36192 1.679 2.40248C1.41233 2.86248 1.259 3.39581 1.259 3.96381C1.2587 4.47514 1.38462 4.97864 1.62559 5.42963C1.86655 5.88063 2.21511 6.26517 2.64033 6.54915C2.14718 6.53345 1.66492 6.4002 1.23367 6.16048V6.20048C1.23362 6.91764 1.48169 7.61273 1.93579 8.16781C2.38989 8.72289 3.02205 9.10377 3.725 9.24581C3.26752 9.36962 2.78789 9.38786 2.32233 9.29915C2.52066 9.91622 2.907 10.4558 3.42724 10.8424C3.94749 11.229 4.57561 11.4433 5.22367 11.4551C4.12356 12.3188 2.76493 12.7872 1.36633 12.7851C1.11859 12.7852 0.871051 12.7707 0.625 12.7418C2.04465 13.6546 3.69723 14.139 5.385 14.1371C11.0983 14.1371 14.2217 9.40515 14.2217 5.30115C14.2217 5.16781 14.2183 5.03315 14.2123 4.89981C14.8199 4.46046 15.3443 3.91641 15.761 3.29315L15.7623 3.29115Z" fill="white"/>
</svg>
