<svg width="16" height="16" viewBox="0 0 16 16" fill="none" xmlns="http://www.w3.org/2000/svg">
<path d="M13.9647 5.53684C13.958 5.03192 13.8635 4.53202 13.6854 4.0595C13.5309 3.66094 13.2951 3.29897 12.9928 2.99672C12.6906 2.69448 12.3286 2.4586 11.93 2.30417C11.4636 2.12907 10.9708 2.0344 10.4727 2.02417C9.83138 1.9955 9.62805 1.9875 8.00005 1.9875C6.37205 1.9875 6.16338 1.9875 5.52671 2.02417C5.02882 2.03447 4.53628 2.12915 4.07005 2.30417C3.67142 2.4585 3.30939 2.69433 3.00714 2.99659C2.70488 3.29885 2.46904 3.66088 2.31471 4.0595C2.13927 4.52559 2.0448 5.01824 2.03538 5.51617C2.00671 6.15817 1.99805 6.3615 1.99805 7.9895C1.99805 9.6175 1.99805 9.8255 2.03538 10.4628C2.04538 10.9615 2.13938 11.4535 2.31471 11.9208C2.4693 12.3193 2.70531 12.6812 3.00767 12.9834C3.31003 13.2855 3.67209 13.5212 4.07071 13.6755C4.53567 13.8576 5.0283 13.9591 5.52738 13.9755C6.16938 14.0042 6.37271 14.0128 8.00071 14.0128C9.62871 14.0128 9.83738 14.0128 10.474 13.9755C10.9721 13.9657 11.465 13.8712 11.9314 13.6962C12.3298 13.5416 12.6917 13.3056 12.9939 13.0034C13.2962 12.7012 13.5321 12.3393 13.6867 11.9408C13.862 11.4742 13.956 10.9822 13.966 10.4828C13.9947 9.8415 14.0034 9.63817 14.0034 8.0095C14.002 6.3815 14.002 6.17484 13.9647 5.53684ZM7.99605 11.0682C6.29338 11.0682 4.91405 9.68884 4.91405 7.98617C4.91405 6.2835 6.29338 4.90417 7.99605 4.90417C8.81344 4.90417 9.59736 5.22888 10.1754 5.80687C10.7533 6.38485 11.078 7.16877 11.078 7.98617C11.078 8.80357 10.7533 9.58749 10.1754 10.1655C9.59736 10.7435 8.81344 11.0682 7.99605 11.0682ZM11.2007 5.50884C10.8027 5.50884 10.482 5.1875 10.482 4.79017C10.482 4.69584 10.5006 4.60243 10.5367 4.51528C10.5728 4.42812 10.6257 4.34893 10.6924 4.28223C10.7591 4.21553 10.8383 4.16262 10.9255 4.12652C11.0126 4.09042 11.106 4.07184 11.2004 4.07184C11.2947 4.07184 11.3881 4.09042 11.4753 4.12652C11.5624 4.16262 11.6416 4.21553 11.7083 4.28223C11.775 4.34893 11.8279 4.42812 11.864 4.51528C11.9001 4.60243 11.9187 4.69584 11.9187 4.79017C11.9187 5.1875 11.5974 5.50884 11.2007 5.50884Z" fill="white"/>
<path d="M7.99614 9.98781C9.10182 9.98781 9.99814 9.09149 9.99814 7.98581C9.99814 6.88014 9.10182 5.98381 7.99614 5.98381C6.89047 5.98381 5.99414 6.88014 5.99414 7.98581C5.99414 9.09149 6.89047 9.98781 7.99614 9.98781Z" fill="white"/>
</svg>
